<svg width="400" height="400" viewBox="0 0 400 400" fill="none" xmlns="http://www.w3.org/2000/svg">
<mask id="path-1-outside-1_1_19" maskUnits="userSpaceOnUse" x="0" y="0" width="400" height="400" fill="black">
<rect fill="white" width="400" height="400"/>
<path fill-rule="evenodd" clip-rule="evenodd" d="M129.781 109.06C118.476 99.8668 111.253 85.8465 111.253 70.1393C111.253 42.4481 133.702 20 161.393 20C177.1 20 191.12 27.2227 200.314 38.528L200.501 38.3403L200.689 38.528C209.882 27.2227 223.903 20 239.61 20C267.301 20 289.749 42.4481 289.749 70.1393C289.749 85.8465 282.527 99.8668 271.221 109.06L271.409 109.248L200.501 180.156L129.594 109.248L129.781 109.06ZM109.06 271.221C99.8668 282.527 85.8465 289.749 70.1393 289.749C42.4481 289.749 20 267.301 20 239.61C20 223.903 27.2227 209.882 38.528 200.689L38.3403 200.501L38.528 200.314C27.2227 191.12 20 177.1 20 161.393C20 133.702 42.4481 111.253 70.1393 111.253C85.8465 111.253 99.8668 118.476 109.06 129.781L109.248 129.594L180.156 200.501L109.248 271.409L109.06 271.221ZM329.861 110.251C314.153 110.251 300.133 117.473 290.94 128.779L290.752 128.591L219.844 199.499L290.752 270.406L290.94 270.219C300.133 281.524 314.154 288.747 329.861 288.746C357.552 288.746 380 266.298 380 238.607C380 222.9 372.777 208.88 361.472 199.686L361.66 199.499L361.472 199.311C372.777 190.118 380 176.097 380 160.39C380 132.699 357.552 110.251 329.861 110.251ZM270.219 290.94C281.524 300.133 288.747 314.153 288.747 329.861C288.747 357.552 266.298 380 238.607 380C222.9 380 208.88 372.777 199.686 361.472L199.499 361.66L199.311 361.472C190.118 372.777 176.097 380 160.39 380C132.699 380 110.251 357.552 110.251 329.861C110.251 314.153 117.473 300.133 128.779 290.94L128.591 290.752L199.499 219.844L270.406 290.752L270.219 290.94Z"/>
</mask>
<path fill-rule="evenodd" clip-rule="evenodd" d="M129.781 109.06C118.476 99.8668 111.253 85.8465 111.253 70.1393C111.253 42.4481 133.702 20 161.393 20C177.1 20 191.12 27.2227 200.314 38.528L200.501 38.3403L200.689 38.528C209.882 27.2227 223.903 20 239.61 20C267.301 20 289.749 42.4481 289.749 70.1393C289.749 85.8465 282.527 99.8668 271.221 109.06L271.409 109.248L200.501 180.156L129.594 109.248L129.781 109.06ZM109.06 271.221C99.8668 282.527 85.8465 289.749 70.1393 289.749C42.4481 289.749 20 267.301 20 239.61C20 223.903 27.2227 209.882 38.528 200.689L38.3403 200.501L38.528 200.314C27.2227 191.12 20 177.1 20 161.393C20 133.702 42.4481 111.253 70.1393 111.253C85.8465 111.253 99.8668 118.476 109.06 129.781L109.248 129.594L180.156 200.501L109.248 271.409L109.06 271.221ZM329.861 110.251C314.153 110.251 300.133 117.473 290.94 128.779L290.752 128.591L219.844 199.499L290.752 270.406L290.94 270.219C300.133 281.524 314.154 288.747 329.861 288.746C357.552 288.746 380 266.298 380 238.607C380 222.9 372.777 208.88 361.472 199.686L361.66 199.499L361.472 199.311C372.777 190.118 380 176.097 380 160.39C380 132.699 357.552 110.251 329.861 110.251ZM270.219 290.94C281.524 300.133 288.747 314.153 288.747 329.861C288.747 357.552 266.298 380 238.607 380C222.9 380 208.88 372.777 199.686 361.472L199.499 361.66L199.311 361.472C190.118 372.777 176.097 380 160.39 380C132.699 380 110.251 357.552 110.251 329.861C110.251 314.153 117.473 300.133 128.779 290.94L128.591 290.752L199.499 219.844L270.406 290.752L270.219 290.94Z" fill="url(#paint0_linear_1_19)"/>
<path d="M129.781 109.06L143.924 123.202L159.598 107.528L142.4 93.5431L129.781 109.06ZM200.314 38.528L184.797 51.1463L198.782 68.3442L214.456 52.6702L200.314 38.528ZM200.501 38.3403L214.644 24.1984L200.502 10.0558L186.359 24.1981L200.501 38.3403ZM200.689 38.528L186.547 52.6699L202.221 68.3445L216.206 51.1463L200.689 38.528ZM271.221 109.06L258.603 93.5431L241.405 107.528L257.079 123.202L271.221 109.06ZM271.409 109.248L285.551 123.39L299.693 109.248L285.551 95.1058L271.409 109.248ZM200.501 180.156L186.359 194.298L200.501 208.44L214.644 194.298L200.501 180.156ZM129.594 109.248L115.452 95.1058L101.309 109.248L115.452 123.39L129.594 109.248ZM109.06 271.221L123.203 257.079L107.529 241.405L93.5431 258.603L109.06 271.221ZM20 239.61L0 239.61L0 239.61L20 239.61ZM38.528 200.689L51.1463 216.206L68.3441 202.221L52.6702 186.547L38.528 200.689ZM38.3403 200.501L24.1983 186.359L10.0559 200.501L24.198 214.643L38.3403 200.501ZM38.528 200.314L52.67 214.456L68.3444 198.782L51.1463 184.797L38.528 200.314ZM20 161.393L0 161.393L0 161.393L20 161.393ZM109.06 129.781L93.5431 142.4L107.528 159.598L123.202 143.924L109.06 129.781ZM109.248 129.594L123.39 115.452L109.248 101.309L95.1058 115.452L109.248 129.594ZM180.156 200.501L194.298 214.644L208.44 200.501L194.298 186.359L180.156 200.501ZM109.248 271.409L95.1055 285.551L109.248 299.694L123.39 285.551L109.248 271.409ZM290.94 128.779L276.798 142.921L292.472 158.595L306.457 141.397L290.94 128.779ZM329.861 110.251L329.861 130.251L329.861 130.251L329.861 110.251ZM290.752 128.591L304.894 114.449L290.752 100.307L276.61 114.449L290.752 128.591ZM219.844 199.499L205.702 185.356L191.56 199.499L205.702 213.641L219.844 199.499ZM290.752 270.406L276.61 284.548L290.752 298.691L304.894 284.548L290.752 270.406ZM290.94 270.219L306.457 257.6L292.472 240.402L276.798 256.076L290.94 270.219ZM329.861 288.746L329.861 268.746L329.861 268.746L329.861 288.746ZM380 238.607L360 238.607L360 238.607L380 238.607ZM361.472 199.686L347.33 185.544L331.656 201.218L348.854 215.203L361.472 199.686ZM361.66 199.499L375.802 213.641L389.945 199.497L375.801 185.355L361.66 199.499ZM361.472 199.311L348.854 183.794L331.654 197.78L347.331 213.454L361.472 199.311ZM270.219 290.94L256.076 276.798L240.402 292.472L257.6 306.457L270.219 290.94ZM199.686 361.472L215.203 348.854L201.218 331.656L185.544 347.33L199.686 361.472ZM199.499 361.66L185.355 375.801L199.497 389.945L213.641 375.802L199.499 361.66ZM199.311 361.472L213.454 347.331L197.78 331.654L183.794 348.854L199.311 361.472ZM110.251 329.861L90.2507 329.861L90.2507 329.861L110.251 329.861ZM128.779 290.94L141.397 306.457L158.594 292.472L142.921 276.798L128.779 290.94ZM128.591 290.752L114.449 276.61L100.307 290.752L114.448 304.894L128.591 290.752ZM199.499 219.844L213.641 205.702L199.499 191.56L185.356 205.702L199.499 219.844ZM270.406 290.752L284.548 304.894L298.691 290.752L284.548 276.61L270.406 290.752ZM91.2535 70.1393C91.2535 92.1201 101.388 111.749 117.163 124.577L142.4 93.5431C135.564 87.9845 131.253 79.573 131.253 70.1393H91.2535ZM161.393 0C122.656 0 91.2535 31.4024 91.2535 70.1393H131.253C131.253 53.4938 144.747 40 161.393 40V0ZM215.831 25.9098C203.003 10.1346 183.374 0 161.393 0V40C170.826 40 179.238 44.3107 184.797 51.1463L215.831 25.9098ZM186.359 24.1981L186.172 24.3859L214.456 52.6702L214.644 52.4824L186.359 24.1981ZM214.831 24.3861L214.644 24.1984L186.359 52.4822L186.547 52.6699L214.831 24.3861ZM239.61 0C217.629 0 198 10.1346 185.172 25.9097L216.206 51.1463C221.765 44.3107 230.176 40 239.61 40V0ZM309.749 70.1393C309.749 31.4024 278.347 0 239.61 0V40C256.255 40 269.749 53.4938 269.749 70.1393H309.749ZM283.84 124.577C299.615 111.749 309.749 92.1201 309.749 70.1393H269.749C269.749 79.573 265.439 87.9845 258.603 93.5431L283.84 124.577ZM285.551 95.1058L285.363 94.918L257.079 123.202L257.267 123.39L285.551 95.1058ZM214.644 194.298L285.551 123.39L257.267 95.1058L186.359 166.013L214.644 194.298ZM115.452 123.39L186.359 194.298L214.644 166.013L143.736 95.1058L115.452 123.39ZM115.639 94.918L115.452 95.1058L143.736 123.39L143.924 123.202L115.639 94.918ZM70.1393 309.749C92.1201 309.749 111.749 299.615 124.577 283.84L93.5431 258.603C87.9845 265.439 79.573 269.749 70.1393 269.749V309.749ZM0 239.61C3.05737e-06 278.347 31.4024 309.749 70.1393 309.749V269.749C53.4938 269.749 40 256.255 40 239.61L0 239.61ZM25.9097 185.172C10.1346 198 -9.58143e-07 217.629 0 239.61L40 239.61C40 230.176 44.3107 221.765 51.1463 216.206L25.9097 185.172ZM24.198 214.643L24.3858 214.831L52.6702 186.547L52.4825 186.359L24.198 214.643ZM24.386 186.171L24.1983 186.359L52.4822 214.644L52.67 214.456L24.386 186.171ZM0 161.393C3.0585e-06 183.374 10.1346 203.003 25.9097 215.831L51.1463 184.797C44.3107 179.238 40 170.826 40 161.393L0 161.393ZM70.1393 91.2535C31.4024 91.2535 -1.68854e-06 122.656 0 161.393L40 161.393C40 144.747 53.4938 131.253 70.1393 131.253V91.2535ZM124.577 117.163C111.749 101.388 92.1201 91.2535 70.1393 91.2535V131.253C79.573 131.253 87.9845 135.564 93.5431 142.4L124.577 117.163ZM95.1058 115.452L94.918 115.639L123.202 143.924L123.39 143.736L95.1058 115.452ZM194.298 186.359L123.39 115.452L95.1058 143.736L166.013 214.644L194.298 186.359ZM123.39 285.551L194.298 214.644L166.013 186.359L95.1058 257.267L123.39 285.551ZM94.9177 285.363L95.1055 285.551L123.39 257.267L123.203 257.079L94.9177 285.363ZM306.457 141.397C312.015 134.561 320.427 130.251 329.861 130.251V90.2507C307.88 90.2507 288.251 100.385 275.423 116.16L306.457 141.397ZM276.61 142.733L276.798 142.921L305.082 114.636L304.894 114.449L276.61 142.733ZM233.987 213.641L304.894 142.733L276.61 114.449L205.702 185.356L233.987 213.641ZM304.894 256.264L233.987 185.356L205.702 213.641L276.61 284.548L304.894 256.264ZM276.798 256.076L276.61 256.264L304.894 284.548L305.082 284.361L276.798 256.076ZM329.861 268.746C320.427 268.747 312.015 264.436 306.457 257.6L275.423 282.837C288.251 298.612 307.88 308.747 329.861 308.746L329.861 268.746ZM360 238.607C360 255.253 346.506 268.746 329.861 268.746V308.746C368.598 308.746 400 277.344 400 238.607L360 238.607ZM348.854 215.203C355.689 220.762 360 229.174 360 238.607H400C400 216.626 389.865 196.997 374.09 184.169L348.854 215.203ZM347.518 185.356L347.33 185.544L375.614 213.828L375.802 213.641L347.518 185.356ZM347.331 213.454L347.519 213.642L375.801 185.355L375.613 185.168L347.331 213.454ZM360 160.39C360 169.824 355.689 178.235 348.854 183.794L374.09 214.828C389.865 202 400 182.371 400 160.39H360ZM329.861 130.251C346.506 130.251 360 143.744 360 160.39H400C400 121.653 368.598 90.2507 329.861 90.2507L329.861 130.251ZM308.747 329.861C308.747 307.88 298.612 288.251 282.837 275.423L257.6 306.457C264.436 312.015 268.747 320.427 268.747 329.861H308.747ZM238.607 400C277.344 400 308.747 368.598 308.747 329.861H268.747C268.747 346.506 255.253 360 238.607 360V400ZM184.169 374.09C196.997 389.865 216.626 400 238.607 400V360C229.174 360 220.762 355.689 215.203 348.854L184.169 374.09ZM213.641 375.802L213.828 375.614L185.544 347.33L185.356 347.518L213.641 375.802ZM185.168 375.613L185.355 375.801L213.642 347.519L213.454 347.331L185.168 375.613ZM160.39 400C182.371 400 202 389.865 214.828 374.09L183.794 348.854C178.235 355.689 169.824 360 160.39 360V400ZM90.2507 329.861C90.2507 368.598 121.653 400 160.39 400V360C143.745 360 130.251 346.506 130.251 329.861L90.2507 329.861ZM116.16 275.423C100.385 288.251 90.2507 307.88 90.2507 329.861H130.251C130.251 320.427 134.561 312.015 141.397 306.457L116.16 275.423ZM114.448 304.894L114.636 305.081L142.921 276.798L142.734 276.611L114.448 304.894ZM185.356 205.702L114.449 276.61L142.733 304.894L213.641 233.987L185.356 205.702ZM284.548 276.61L213.641 205.702L185.356 233.987L256.264 304.894L284.548 276.61ZM284.361 305.082L284.548 304.894L256.264 276.61L256.076 276.798L284.361 305.082Z" fill="#214232" mask="url(#path-1-outside-1_1_19)"/>
<defs>
<linearGradient id="paint0_linear_1_19" x1="200" y1="20" x2="200" y2="380" gradientUnits="userSpaceOnUse">
<stop stop-color="#6EF49C"/>
<stop offset="1" stop-color="#42996F"/>
</linearGradient>
</defs>
</svg>
