<svg width="360" height="360" viewBox="0 0 360 360" fill="none" xmlns="http://www.w3.org/2000/svg">
<path fill-rule="evenodd" clip-rule="evenodd" d="M109.781 89.0602C98.4762 79.8668 91.2535 65.8465 91.2535 50.1393C91.2535 22.4481 113.702 0 141.393 0C157.1 0 171.12 7.22268 180.314 18.528L180.501 18.3403L180.689 18.528C189.882 7.22268 203.903 0 219.61 0C247.301 0 269.749 22.4481 269.749 50.1393C269.749 65.8465 262.527 79.8668 251.221 89.0602L251.409 89.2479L180.501 160.156L109.594 89.2479L109.781 89.0602ZM89.0602 251.221C79.8668 262.527 65.8465 269.749 50.1393 269.749C22.4481 269.749 2.18557e-06 247.301 0 219.61C-6.84678e-07 203.903 7.22268 189.882 18.528 180.689L18.3403 180.501L18.528 180.314C7.22268 171.12 2.18557e-06 157.1 0 141.393C-1.20706e-06 113.702 22.4481 91.2535 50.1393 91.2535C65.8465 91.2535 79.8668 98.4762 89.0602 109.781L89.2479 109.594L160.156 180.501L89.2479 251.409L89.0602 251.221ZM309.861 90.2507C294.153 90.2507 280.133 97.4734 270.94 108.779L270.752 108.591L199.844 179.499L270.752 250.406L270.94 250.219C280.133 261.524 294.154 268.747 309.861 268.746C337.552 268.746 360 246.298 360 218.607C360 202.9 352.777 188.88 341.472 179.686L341.66 179.499L341.472 179.311C352.777 170.118 360 156.097 360 140.39C360 112.699 337.552 90.2507 309.861 90.2507ZM250.219 270.94C261.524 280.133 268.747 294.153 268.747 309.861C268.747 337.552 246.298 360 218.607 360C202.9 360 188.88 352.777 179.686 341.472L179.499 341.66L179.311 341.472C170.118 352.777 156.097 360 140.39 360C112.699 360 90.2507 337.552 90.2507 309.861C90.2507 294.153 97.4734 280.133 108.779 270.94L108.591 270.752L179.499 199.844L250.406 270.752L250.219 270.94Z" fill="white"/>
</svg>
